<svg id="Warstwa_1" data-name="Warstwa 1" xmlns="http://www.w3.org/2000/svg" viewBox="0 0 140 140"><defs><style>.cls-1{fill:#fff;}</style></defs><title>cp-auto_autohande;_oldtimer_renovation</title><path class="cls-1" d="M129.75,67.61l-.1-18.36c0-9-9.26-15.07-17.56-15.07H58.93L50.87,57.62s-29.51.11-36.53.11-6.89,4-6.89,4V79.38c0,.06,0,.14,0,.21H1.58V94.45h17a17,17,0,0,1-.32-3.24,17.43,17.43,0,0,1,34.85,0,18,18,0,0,1-.31,3.24H93.25a18.25,18.25,0,0,1-.31-3.24,17.42,17.42,0,1,1,34.85,0,18.08,18.08,0,0,1-.32,3.33l10.37.13C141.06,70.39,129.75,67.61,129.75,67.61ZM79.12,57.83H60.28l5-18.84H79.12Zm29.3.42H83.73V39h24.68ZM36,78.32A13.75,13.75,0,1,0,49.78,92.07,13.75,13.75,0,0,0,36,78.32Zm0,20a6.22,6.22,0,1,1,6.22-6.22A6.21,6.21,0,0,1,36,98.29Zm74.08-20a13.75,13.75,0,1,0,13.74,13.75A13.75,13.75,0,0,0,110.12,78.32Zm0,20a6.22,6.22,0,1,1,6.21-6.22A6.22,6.22,0,0,1,110.12,98.29Z"/></svg>