<svg id="Warstwa_1" data-name="Warstwa 1" xmlns="http://www.w3.org/2000/svg" viewBox="0 0 85.38 74"><defs><style>.cls-1{fill:#fff;}</style></defs><title>cp-auto_autohandel</title><path class="cls-1" d="M81.64,31.23a4.39,4.39,0,0,0-4.28-3.64H74.93L74,18A19.85,19.85,0,0,0,54.19,0h-23A19.85,19.85,0,0,0,11.37,18l-.92,9.56H8a4.39,4.39,0,0,0-4.29,3.64L.12,51.7A8.78,8.78,0,0,0,8.44,61.93v3.4A8.65,8.65,0,0,0,17.08,74h2.77a8.7,8.7,0,0,0,8.72-8.69h0V62H56.8V65.3A8.68,8.68,0,0,0,65.46,74h2.8A8.69,8.69,0,0,0,77,65.33s0,0,0,0V61.91a8.72,8.72,0,0,0,8.3-10.22ZM16.08,54.09a7.36,7.36,0,1,1,7.36-7.36,7.36,7.36,0,0,1-7.36,7.36Zm1.83-26.5.85-8.85A12.43,12.43,0,0,1,31.18,7.45h1.32v2.78a4.31,4.31,0,0,0,4.28,4.34H48.53a4.34,4.34,0,0,0,4.39-4.29V7.47h1.29A12.43,12.43,0,0,1,66.63,18.76l.83,8.84ZM69.29,54.08a7.36,7.36,0,1,1,7.36-7.36h0a7.36,7.36,0,0,1-7.34,7.37h0Z"/></svg>