<svg id="Warstwa_1" data-name="Warstwa 1" xmlns="http://www.w3.org/2000/svg" viewBox="0 0 973.48 320.48"><defs><style>.cls-1{fill:#010101;}.cls-2{fill:#f5992c;}</style></defs><title>cp-auto_autohandel_neu-ulm_auto-kaufen</title><path class="cls-1" d="M384.77,160.82a18.92,18.92,0,0,0-18.55-15.68h-10.5l-4-41.54a85.92,85.92,0,0,0-85.77-78H166.39a85.94,85.94,0,0,0-85.78,78l-4,41.54H66.12a19,19,0,0,0-18.57,15.68L31.92,249.42a37.87,37.87,0,0,0,36,44.28v14.71A37.47,37.47,0,0,0,105.48,346h11.86a37.68,37.68,0,0,0,37.77-37.61V293.95H277.35v14.44A37.58,37.58,0,0,0,315,346h11.87a37.6,37.6,0,0,0,37.66-37.65V293.71a37.76,37.76,0,0,0,35.92-44.21ZM101,259.77a31.85,31.85,0,1,1,31.85-31.84A31.83,31.83,0,0,1,101,259.77Zm7.94-114.63,3.68-38.32A53.81,53.81,0,0,1,166.39,58h5.74V70a18.65,18.65,0,0,0,18.74,18.78h50.6A18.78,18.78,0,0,0,260.36,70V58H266a53.79,53.79,0,0,1,53.78,48.85l3.69,38.32ZM331.33,259.77a31.85,31.85,0,1,1,31.85-31.84A31.83,31.83,0,0,1,331.33,259.77Z" transform="translate(-31.35 -25.55)"/><path class="cls-1" d="M665.51,199.9a8.19,8.19,0,0,0-8-6.79h-4.55l-1.73-18a37.2,37.2,0,0,0-37.14-33.79H571a37.21,37.21,0,0,0-37.14,33.79l-1.72,18h-4.55a8.2,8.2,0,0,0-8,6.79l-6.77,38.36a16.39,16.39,0,0,0,15.59,19.17v6.37a16.22,16.22,0,0,0,16.25,16.28h5.13a16.31,16.31,0,0,0,16.35-16.28v-6.27H619v6.25a16.27,16.27,0,0,0,16.29,16.3h5.14a16.28,16.28,0,0,0,16.3-16.3v-6.36a16.35,16.35,0,0,0,15.55-19.14ZM542.64,242.75A13.79,13.79,0,1,1,556.43,229,13.78,13.78,0,0,1,542.64,242.75Zm3.44-49.63,1.59-16.59A23.3,23.3,0,0,1,571,155.38h2.49v5.21a8.08,8.08,0,0,0,8.12,8.13h21.91a8.13,8.13,0,0,0,8.18-8.13v-5.21h2.42a23.29,23.29,0,0,1,23.29,21.15l1.6,16.59Zm96.29,49.63A13.79,13.79,0,1,1,656.17,229,13.78,13.78,0,0,1,642.38,242.75Z" transform="translate(-31.35 -25.55)"/><path class="cls-2" d="M831.67,199.9a8.19,8.19,0,0,0-8-6.79h-4.55l-1.73-18a37.2,37.2,0,0,0-37.14-33.79H737.12A37.21,37.21,0,0,0,700,175.13l-1.72,18H693.7a8.2,8.2,0,0,0-8,6.79l-6.77,38.36a16.39,16.39,0,0,0,15.59,19.17v6.37a16.22,16.22,0,0,0,16.25,16.28h5.13a16.31,16.31,0,0,0,16.35-16.28v-6.27h52.92v6.25a16.27,16.27,0,0,0,16.29,16.3h5.14a16.28,16.28,0,0,0,16.3-16.3v-6.36a16.35,16.35,0,0,0,15.55-19.14ZM708.8,242.75A13.79,13.79,0,1,1,722.59,229,13.78,13.78,0,0,1,708.8,242.75Zm3.44-49.63,1.59-16.59a23.3,23.3,0,0,1,23.29-21.15h2.49v5.21a8.08,8.08,0,0,0,8.12,8.13h21.91a8.13,8.13,0,0,0,8.18-8.13v-5.21h2.42a23.29,23.29,0,0,1,23.29,21.15l1.6,16.59Zm96.29,49.63A13.79,13.79,0,1,1,822.32,229,13.78,13.78,0,0,1,808.53,242.75Z" transform="translate(-31.35 -25.55)"/><path class="cls-1" d="M997.82,199.9a8.19,8.19,0,0,0-8-6.79h-4.55l-1.73-18a37.2,37.2,0,0,0-37.14-33.79H903.27a37.21,37.21,0,0,0-37.14,33.79l-1.72,18h-4.55a8.2,8.2,0,0,0-8,6.79l-6.77,38.36a16.39,16.39,0,0,0,15.59,19.17v6.37a16.22,16.22,0,0,0,16.25,16.28H882a16.31,16.31,0,0,0,16.35-16.28v-6.27h52.92v6.25a16.27,16.27,0,0,0,16.29,16.3h5.14a16.28,16.28,0,0,0,16.3-16.3v-6.36a16.35,16.35,0,0,0,15.55-19.14ZM875,242.75A13.79,13.79,0,1,1,888.74,229,13.78,13.78,0,0,1,875,242.75Zm3.44-49.63L880,176.52a23.3,23.3,0,0,1,23.29-21.15h2.49v5.21a8.08,8.08,0,0,0,8.12,8.13h21.91a8.13,8.13,0,0,0,8.18-8.13v-5.21h2.42a23.29,23.29,0,0,1,23.29,21.15l1.6,16.59Zm96.29,49.63A13.79,13.79,0,1,1,988.47,229,13.78,13.78,0,0,1,974.68,242.75Z" transform="translate(-31.35 -25.55)"/></svg>