<svg id="Warstwa_1" data-name="Warstwa 1" xmlns="http://www.w3.org/2000/svg" viewBox="0 0 140 71.64"><defs><style>.cls-1{fill:#fff;}</style></defs><title>cp-auto_autohandel</title><path class="cls-1" d="M129.75,33.43l-.1-18.36c0-9-9.26-15.07-17.56-15.07H58.93L50.87,23.44s-29.51.11-36.53.11-6.89,4-6.89,4V45.41H1.58V60.27h17A17,17,0,0,1,18.26,57a17.43,17.43,0,0,1,34.85,0,18,18,0,0,1-.31,3.24H93.25A18.25,18.25,0,0,1,92.94,57a17.42,17.42,0,0,1,34.85,0,18.08,18.08,0,0,1-.32,3.33l10.37.13C141.06,36.21,129.75,33.43,129.75,33.43ZM79.12,23.65H60.28l5-18.84H79.12Zm29.3.42H83.73V4.82h24.68ZM36,44.14A13.75,13.75,0,1,0,49.78,57.89,13.75,13.75,0,0,0,36,44.14Zm0,20a6.22,6.22,0,1,1,6.22-6.22A6.22,6.22,0,0,1,36,64.14Zm74.08-20A13.75,13.75,0,1,0,123.82,57.9h0a13.75,13.75,0,0,0-13.7-13.75Zm0,20a6.22,6.22,0,1,1,6.21-6.23h0a6.22,6.22,0,0,1-6.17,6.19Z"/></svg>