<svg id="Warstwa_1" data-name="Warstwa 1" xmlns="http://www.w3.org/2000/svg" viewBox="0 0 140 103.24"><defs><style>.cls-1{fill:#fff;}</style></defs><title>cp-auto_autohandel</title><path class="cls-1" d="M139,71.78V85.31a12.12,12.12,0,0,1-12.12,12.11h-3.75a17.08,17.08,0,0,0,.53-4.06,17.26,17.26,0,0,0-34.51,0,16.91,16.91,0,0,0,.53,4.06H50.31a17.07,17.07,0,0,0,.53-4.06,17.25,17.25,0,0,0-34.51,0,17.07,17.07,0,0,0,.53,4.06H13.12A12.12,12.12,0,0,1,1,85.31V71.78A12.12,12.12,0,0,1,13.12,59.66H27.28c7.08-18,27.33-30.81,50.85-30.81s43.91,13,50.93,31A12.12,12.12,0,0,1,139,71.78ZM106.41,83A10.33,10.33,0,0,0,96.29,95.47a.73.73,0,0,0,0,.09,10.48,10.48,0,0,0,.58,1.86h0a10.33,10.33,0,0,0,19,0h0a10.47,10.47,0,0,0,.58-1.86v-.09A10.33,10.33,0,0,0,106.34,83ZM33.59,83A10.33,10.33,0,0,0,23.26,93.36a10.2,10.2,0,0,0,.21,2.1h0a10.33,10.33,0,0,0,19.62,1.93h0a9.85,9.85,0,0,0,.59-1.87v-.08A10.33,10.33,0,0,0,33.57,83ZM22.28,20.62c-6.18-1.58-7.71-2.35-7.71-4.7v-.07c0-1.74,1.58-3.11,4.6-3.11a14.91,14.91,0,0,1,7.51,2.4,3.73,3.73,0,0,0,2,.57,3.62,3.62,0,0,0,3.68-3.56s0,0,0-.07A3.57,3.57,0,0,0,30.62,9,20,20,0,0,0,23,6.09V3.4a3.4,3.4,0,0,0-6.8,0h0V6.06c-5.64,1-9.44,5-9.44,10.47v.1c0,7.1,4.65,9.09,11.85,10.93,6,1.54,7.2,2.55,7.2,4.54v.1c0,2.09-1.94,3.37-5.16,3.37a15.1,15.1,0,0,1-9.14-3.21,3.78,3.78,0,0,0-2.24-.71,3.62,3.62,0,0,0-3.68,3.56s0,0,0,.06a3.67,3.67,0,0,0,1.48,3,23,23,0,0,0,9.13,3.84v2.81a3.4,3.4,0,0,0,6.8,0V42.37c6.34-.79,10.62-4.62,10.62-10.91v-.11C33.61,25.12,29.52,22.51,22.28,20.62Z"/></svg>