<svg id="Warstwa_1" data-name="Warstwa 1" xmlns="http://www.w3.org/2000/svg" viewBox="0 0 1425.58 159.5"><defs><style>.cls-1{fill:#1d1d1b;}.cls-2{fill:#f4992c;}</style></defs><title>cp-auto_autohandel_neu-ulm</title><path class="cls-1" d="M37.61,8.57A46.54,46.54,0,0,1,51.45,6.42h155q15.37,0,15.37,15.59,0,15.79-15.37,15.79h-155q-15.56,0-15.56,15.79v62.76q0,15.79,15.56,15.79h155q15.37,0,15.37,15.59,0,15.79-15.37,15.79h-155a44.23,44.23,0,0,1-22.67-6Q5.91,144.6,5.15,118.29a4.23,4.23,0,0,0-.1-1,4,4,0,0,1-.1-1V53.59A1.57,1.57,0,0,1,5,53.1a1.65,1.65,0,0,0,.1-.49,45.68,45.68,0,0,1,9.32-27.29A45.6,45.6,0,0,1,37.61,8.57Z" transform="translate(-4.95 -5.51)"/><path class="cls-1" d="M283.56,85q0-15.79,15.37-15.79H407.48q15.37,0,15.37-15.59,0-15.79-15.37-15.79H283.56Q268,37.8,268,53.59v94.13q0,15.79-15.37,15.79-15.56,0-15.56-15.79V53.59a45.76,45.76,0,0,1,13.64-33.33A44.47,44.47,0,0,1,283.56,6.42H407.48q19,0,32.76,13.84A45.61,45.61,0,0,1,454,53.59a45.28,45.28,0,0,1-13.74,33.23q-13.74,13.74-32.76,13.74H298.93Q283.56,100.56,283.56,85Z" transform="translate(-4.95 -5.51)"/><path class="cls-2" d="M490.88,133.83q15.56,0,15.56,15.59T490.88,165h-186q-15.37,0-15.37-15.59t15.37-15.59Z" transform="translate(-4.95 -5.51)"/><path class="cls-1" d="M548.22,115.43V146.8q0,15.79-15.37,15.79-15.56,0-15.56-15.79V52.67a45.76,45.76,0,0,1,13.64-33.33A44.47,44.47,0,0,1,563.78,5.51H687.69q19,0,32.76,13.84a45.61,45.61,0,0,1,13.74,33.33V146.8q0,15.79-15.56,15.79T703.06,146.8V52.67q0-15.79-15.37-15.79H563.78q-15.56,0-15.56,15.79,0,15.59,15.56,15.59H672.13q15.56,0,15.56,15.79,0,15.59-15.56,15.59H563.78Q548.22,99.64,548.22,115.43Z" transform="translate(-4.95 -5.51)"/><path class="cls-1" d="M935.18,21.1q0-15.59,15.56-15.59T966.3,21.1v94.33h-.19a45.76,45.76,0,0,1-13.64,33.33q-13.64,13.84-32.66,13.84H795.89A44.45,44.45,0,0,1,763,148.75a45.75,45.75,0,0,1-13.64-33.33V21.1Q749.4,5.51,765,5.51q15.37,0,15.37,15.59v94.33q0,15.79,15.56,15.79H919.81q15.37,0,15.37-15.79V21.1Z" transform="translate(-4.95 -5.51)"/><path class="cls-1" d="M1058.94,36.88H996.88q-15.37,0-15.37-15.79,0-15.59,15.37-15.59h186q15.56,0,15.56,15.59,0,15.79-15.56,15.79H1120.8q-15.18,0-15.37,15.4V146.8q0,15.79-15.56,15.79t-15.56-15.79V52.67Q1074.31,36.88,1058.94,36.88Z" transform="translate(-4.95 -5.51)"/><path class="cls-1" d="M1383.84,5.51h.19q19,0,32.76,13.84a45.61,45.61,0,0,1,13.74,33.33v62.76a45.6,45.6,0,0,1-13.74,33.33q-13.74,13.84-32.76,13.84H1260.12a44.45,44.45,0,0,1-32.85-13.84,45.75,45.75,0,0,1-13.64-33.33V52.67a45.76,45.76,0,0,1,13.64-33.33,44.46,44.46,0,0,1,32.85-13.84ZM1244.56,115.43q0,15.79,15.56,15.79H1384q15.37,0,15.37-15.79V52.67q0-15.79-15.37-15.79H1260.12q-15.56,0-15.56,15.79Z" transform="translate(-4.95 -5.51)"/></svg>