<svg id="Warstwa_1" data-name="Warstwa 1" xmlns="http://www.w3.org/2000/svg" viewBox="0 0 140 74"><defs><style>.cls-1{fill:#fff;}</style></defs><title>cp-auto_autohandel</title><path class="cls-1" d="M108.95,31.23a4.39,4.39,0,0,0-4.28-3.64h-2.43L101.31,18A19.85,19.85,0,0,0,81.5,0h-23A19.85,19.85,0,0,0,38.68,18l-.92,9.56H35.33A4.39,4.39,0,0,0,31,31.23L27.43,51.7a8.78,8.78,0,0,0,8.32,10.23v3.4A8.65,8.65,0,0,0,44.39,74h2.77a8.7,8.7,0,0,0,8.72-8.69h0V62H84.11v3.34A8.68,8.68,0,0,0,92.77,74h2.8a8.69,8.69,0,0,0,8.7-8.67s0,0,0,0V61.91a8.72,8.72,0,0,0,8.3-10.22ZM43.39,54.09a7.36,7.36,0,1,1,7.36-7.36,7.36,7.36,0,0,1-7.36,7.36Zm1.83-26.5.85-8.85A12.43,12.43,0,0,1,58.5,7.45h1.32v2.78a4.31,4.31,0,0,0,4.28,4.34H75.84a4.34,4.34,0,0,0,4.39-4.29V7.47h1.29A12.43,12.43,0,0,1,93.95,18.76l.83,8.84ZM96.6,54.08A7.36,7.36,0,1,1,104,46.72h0a7.36,7.36,0,0,1-7.34,7.37h0Z"/></svg>