<svg id="Warstwa_1" data-name="Warstwa 1" xmlns="http://www.w3.org/2000/svg" viewBox="0 0 140 73.54"><defs><style>.cls-1{fill:#fff;}</style></defs><title>cp-auto_autohandel</title><path class="cls-1" d="M123.45,49V59.45a9.39,9.39,0,0,1-9.39,9.38h-2.91a13.23,13.23,0,0,0,.41-3.15,13.37,13.37,0,0,0-26.73,0,13.1,13.1,0,0,0,.41,3.15H54.75a13.22,13.22,0,0,0,.41-3.15,13.37,13.37,0,0,0-26.73,0,13.22,13.22,0,0,0,.41,3.15h-2.9a9.39,9.39,0,0,1-9.39-9.38V49a9.39,9.39,0,0,1,9.39-9.39h11C42.39,25.66,58.08,15.71,76.3,15.71s34,10.07,39.45,24A9.39,9.39,0,0,1,123.45,49ZM98.21,57.69a8,8,0,0,0-7.84,9.63.56.56,0,0,0,0,.07,8.12,8.12,0,0,0,.45,1.44h0a8,8,0,0,0,14.72,0h0a8.11,8.11,0,0,0,.45-1.44v-.07a8,8,0,0,0-7.83-9.63Zm-56.41,0a8,8,0,0,0-8,8A7.9,7.9,0,0,0,34,67.31h0a8,8,0,0,0,15.2,1.5h0a7.63,7.63,0,0,0,.46-1.45V67.3a8,8,0,0,0-7.83-9.63ZM30.63,13.32c-3.9-1-4.86-1.48-4.86-3v0c0-1.1,1-2,2.9-2a9.41,9.41,0,0,1,4.74,1.51,2.35,2.35,0,0,0,1.26.36A2.28,2.28,0,0,0,37,8s0,0,0,0a2.25,2.25,0,0,0-1.1-2,12.62,12.62,0,0,0-4.81-1.82V2.45a2.14,2.14,0,1,0-4.29,0h0V4.13c-3.56.63-6,3.12-6,6.6v.06c0,4.48,2.93,5.73,7.48,6.9,3.79,1,4.54,1.61,4.54,2.86v.06c0,1.32-1.22,2.13-3.26,2.13a9.53,9.53,0,0,1-5.77-2,2.38,2.38,0,0,0-1.41-.45,2.28,2.28,0,0,0-2.32,2.25s0,0,0,0A2.32,2.32,0,0,0,21,24.45a14.51,14.51,0,0,0,5.76,2.42v1.77a2.14,2.14,0,0,0,4.29,0V27c4-.5,6.7-2.91,6.7-6.88v-.07C37.78,16.16,35.2,14.51,30.63,13.32Z"/></svg>