<svg id="Warstwa_1" data-name="Warstwa 1" xmlns="http://www.w3.org/2000/svg" viewBox="0 0 136.84 71.64"><defs><style>.cls-1{fill:#fff;}</style></defs><title>cp-auto_autohandel</title><path class="cls-1" d="M128.17,33.43l-.1-18.36c0-9-9.26-15.07-17.56-15.07H57.35L49.29,23.44s-29.51.11-36.53.11-6.89,4-6.89,4V45.41H0V60.27H17A17,17,0,0,1,16.68,57a17.43,17.43,0,0,1,34.85,0,18,18,0,0,1-.31,3.24H91.67A18.25,18.25,0,0,1,91.36,57a17.42,17.42,0,0,1,34.85,0,18.08,18.08,0,0,1-.32,3.33l10.37.13C139.48,36.21,128.17,33.43,128.17,33.43ZM77.54,23.65H58.7l5-18.84H77.54Zm29.3.42H82.15V4.82h24.68ZM34.42,44.14A13.75,13.75,0,1,0,48.2,57.89,13.75,13.75,0,0,0,34.42,44.14Zm0,20a6.22,6.22,0,1,1,6.22-6.22,6.22,6.22,0,0,1-6.22,6.22Zm74.08-20A13.75,13.75,0,1,0,122.24,57.9h0a13.75,13.75,0,0,0-13.7-13.75Zm0,20a6.22,6.22,0,1,1,6.21-6.23h0a6.22,6.22,0,0,1-6.17,6.19Z"/></svg>