<svg id="Warstwa_1" data-name="Warstwa 1" xmlns="http://www.w3.org/2000/svg" viewBox="0 0 140 71.64"><defs><style>.cls-1{fill:#fff;}</style></defs><title>cp-auto_autohandel</title><path class="cls-1" d="M117.45,39.79l-.08-15.08c0-7.39-7.61-12.38-14.43-12.38H59.27L52.65,31.58s-24.24.09-30,.09S17,35,17,35V49.63H12.15V61.84h14a14,14,0,0,1-.26-2.66,14.32,14.32,0,0,1,28.63,0,14.79,14.79,0,0,1-.25,2.66H87.47a15,15,0,0,1-.25-2.66,14.32,14.32,0,0,1,28.63,0,14.85,14.85,0,0,1-.26,2.74l8.52.11C126.74,42.08,117.45,39.79,117.45,39.79Zm-41.6-8H60.38l4.11-15.48H75.86Zm24.07.35H79.64V16.29H99.92ZM40.43,48.59a11.3,11.3,0,1,0,11.32,11.3,11.3,11.3,0,0,0-11.32-11.3Zm0,16.43a5.11,5.11,0,1,1,5.11-5.11A5.11,5.11,0,0,1,40.43,65Zm60.86-16.43a11.3,11.3,0,1,0,11.29,11.3h0a11.3,11.3,0,0,0-11.26-11.3Zm0,16.43a5.11,5.11,0,1,1,5.1-5.12h0A5.11,5.11,0,0,1,101.33,65Z"/></svg>