<svg id="Warstwa_1" data-name="Warstwa 1" xmlns="http://www.w3.org/2000/svg" viewBox="0 0 140 140"><defs><style>.cls-1{fill:#fff;}</style></defs><title>cp-auto_autohandel_autoskaufe</title><path class="cls-1" d="M132.11,60.8A7,7,0,0,0,125.28,55h-3.87l-1.47-15.3A31.65,31.65,0,0,0,88.34,11H51.66a31.66,31.66,0,0,0-31.6,28.75L18.6,55H14.72A7,7,0,0,0,7.88,60.8L2.13,93.44a14,14,0,0,0,13.27,16.31v5.42A13.8,13.8,0,0,0,29.22,129h4.37a13.88,13.88,0,0,0,13.91-13.86v-5.33h45v5.32A13.84,13.84,0,0,0,106.4,129h4.37a13.85,13.85,0,0,0,13.87-13.87v-5.41a13.91,13.91,0,0,0,13.23-16.29ZM27.57,97.25A11.73,11.73,0,1,1,39.3,85.52,11.73,11.73,0,0,1,27.57,97.25ZM30.49,55l1.35-14.12a19.82,19.82,0,0,1,19.82-18h2.11v4.44a6.87,6.87,0,0,0,6.91,6.92H79.32a6.92,6.92,0,0,0,7-6.92V22.91h2.06a19.82,19.82,0,0,1,19.81,18L109.52,55Zm81.93,42.23a11.73,11.73,0,1,1,11.73-11.73A11.73,11.73,0,0,1,112.42,97.25Z"/></svg>